<svg id="Layer_1" xmlns="http://www.w3.org/2000/svg" viewBox="0 0 25 25"><style>.st0,.st1,.st2{fill:#fff;stroke:#000;stroke-width:.75;stroke-miterlimit:10}.st1,.st2{fill:none;stroke-width:.5}.st2{stroke-width:.75}</style><path class="st0 svg__st" d="M4.1 9.8h2.6v8.6H4.1z"/><path class="st0 svg__st" d="M2.9 8.3c-.1.2-.1.4-.1.6 0 .8.7 1.5 1.5 1.5h2.1c.8 0 1.5-.7 1.5-1.5 0-.2 0-.4-.1-.6H2.9zm4.9 11.8c.1-.2.1-.4.1-.6 0-.8-.7-1.5-1.5-1.5H4.3c-.8 0-1.5.7-1.5 1.5 0 .2 0 .4.1.6h4.9zm3.4-10.3h2.6v8.6h-2.6z"/><path class="st0 svg__st" d="M10 8.3c0 .2-.1.4-.1.6 0 .8.7 1.5 1.5 1.5h2.1c.8 0 1.5-.7 1.5-1.5 0-.2 0-.4-.1-.6H10zm5 11.8c.1-.2.1-.4.1-.6 0-.8-.7-1.5-1.5-1.5h-2.1c-.8 0-1.5.7-1.5 1.5 0 .2 0 .4.1.6H15zm3.3-10.3h2.6v8.6h-2.6z"/><path class="st0 svg__st" d="M17.2 8.3c-.1.2-.1.4-.1.6 0 .8.7 1.5 1.5 1.5h2.1c.8 0 1.5-.7 1.5-1.5 0-.2 0-.4-.1-.6h-4.9zm4.9 11.8c.1-.2.1-.4.1-.6 0-.8-.7-1.5-1.5-1.5h-2.1c-.8 0-1.5.7-1.5 1.5 0 .2 0 .4.1.6h4.9z"/><path class="st1 svg__st" d="M5.4 10.4V18m7-7.6V18m7.2-7.6V18"/><path class="st0 svg__st" d="M2.5 20.1h20v1.5h-20z"/><path class="st2 svg__st" d="M24.3 8.2H.7V6.8L12.5.9l11.8 5.9z"/><ellipse class="st2 svg__st" cx="12.3" cy="4.8" rx="1.6" ry="1.6"/><path class="st0 svg__st" d="M.9 21.5h23.2v2.6H.9z"/><path class="st1 svg__st" d="M.9 22.8h3.2m16.8 0h3.2"/></svg>