<svg id="Layer_1" xmlns="http://www.w3.org/2000/svg" viewBox="0 0 24 23"><style>.st0,.st1,.st2{fill:none;stroke-width:.75;stroke:#a70c5d;stroke-miterlimit:10}.st1,.st2{fill:#a70c5d;stroke-width:.5}.st2{stroke-width:.75;stroke-linecap:round;stroke-linejoin:round}</style><path class="st0 svg__st" d="M3.7 18l-1.5 3.5L.7 18V2.4h3z"/><path class="st1 svg__st" d="M2.2 2.4V18m-.6 2.2h1.2"/><path class="st2 svg__st" d="M.9 18h2.6"/><path class="st0 svg__st" d="M7.1 6h14v16.1h-14zm12 0v16m2-2.3H23V3.9M8.6 9.2h5.8m-5.8 1.6h9.2m-9.2 1.7h5.8m-5.8 1.6h9.2m-9.2 1.7h5.8"/><path class="st2 svg__st" d="M8.1 1.4h12"/><path class="svg__fl" d="M22.6 3.9h.7v-.1C23.3 2.2 22 1 20.5 1s-2.8 1.3-2.8 2.8c0 .9.4 1.6 1 2.2h1.4v-.2c-.9-.2-1.6-1-1.6-2 0-1.1.9-2.1 2.1-2.1s2 1 2 2.2c0-.1 0-.1 0 0zM6.5 3.7c0-1 .7-1.9 1.7-2V1c-1.3.1-2.4 1.3-2.4 2.7 0 .9.4 1.6 1 2.2h1.4v-.1c-1-.2-1.7-1.1-1.7-2.1z" fill="#a70c5d"/><circle class="st1 svg__st" cx="20.6" cy="3.8" r=".9"/><path class="st1 svg__st" d="M6.5 3.7h1.7m8.2 0h1.7"/><path class="svg__fl" fill="#a70c5d" stroke="#a70c5d" stroke-width=".276" stroke-miterlimit="10" d="M2.8 20.2l-.6 1.4-.6-1.4z"/></svg>