<svg id="Layer_1" width="110" height="51" xmlns="http://www.w3.org/2000/svg" viewBox="0 0 232.6 109.4"><style>.st0{stroke:#970048;stroke-width:.25;stroke-miterlimit:10;fill:#970048}</style><path class="st0" d="M80.3 16.9c-.2-.2-.4-.4-.7-.4 0 0-3-.3-7.2-.5V1c0-.4-.2-.7-.5-.9-.3-.2-.7-.2-1 0L58.6 7c-4.5-2.9-11-6.1-18-6.1H39C32 .9 25.5 4.1 21 7L8.9.1C8.6 0 8.2 0 7.8.1c-.3.2-.5.6-.5.9v15c-3.7.2-6.3.4-6.4.4-.5.1-.9.6-.9 1.2.1.8 1.5 15.3 7.3 24.7V53c-.4-.1-.7-.2-.8-.2-.3-.1-.6 0-.9.2-.3.2-.4.5-.4.8 0 .9-.8 22.6 7.7 35 6.7 9.7 14.8 14.8 19.4 17.1 4.1 2.3 7.1 3.4 7.3 3.4.1 0 .2.1.4.1.1 0 .3 0 .4-.1.2-.1 2.9-1.2 6.7-3.4 4.6-2.3 12.8-7.4 19.4-17.1 1.1-1.6 2-3.4 2.9-5.2 2.1-4.1 3.4-8.5 3.7-12.9 1.5-8.7 1.2-16.4 1.2-16.9 0-.3-.2-.6-.4-.8-.3-.2-.6-.3-.9-.2-.1 0-.3.1-.6.2v-9.3c2.1-3.1 4-7.5 5.6-13.1 1.9-6.7 2.6-12.6 2.6-12.9 0-.3-.1-.6-.3-.8zM9.4 2.8l11.2 6.3c.3.2.8.2 1.1 0C24.8 7 29.2 4.7 34 3.6v7.5c0 .6.5 1 1 1 .6 0 1-.5 1-1V3.2c.9-.2 1.9-.2 2.8-.2v11c0 .6.5 1 1 1 .6 0 1-.5 1-1V3c.9 0 1.8.1 2.7.2v7.9c0 .6.5 1 1 1 .6 0 1-.5 1-1V3.6c5 1 9.4 3.4 12.5 5.5.3.2.7.2 1.1 0l11.2-6.3v13.1H67c-10 0-16.8 1.3-20.1 3.7-2.9 2.1-4.9 4.9-6.1 8.1-.2.4-.4.8-.6 1.3-1-3.6-3.2-6.9-6.5-9.3-3.3-2.5-10.1-3.7-20.1-3.7-1.4 0-2.8 0-4.2.1V2.8zm44.6 45c-1.9 0-4.2-.7-6-1.5-1.2-.9-2.2-1.9-3.1-3.2-3.2-4.4-3.8-9.9-2.1-14.6 2.2-3.9 6.4-6.6 11.3-6.6 7.1 0 12.9 5.8 12.9 12.9-.1 7.2-5.9 13-13 13zm-28 0c-7.1 0-12.9-5.8-12.9-12.9C13.1 27.8 18.9 22 26 22c6.2 0 11.5 4.4 12.7 10.3.4 3.7-.6 7.7-3 10.9-.7 1-1.5 1.8-2.4 2.6-1.9.8-4.9 2-7.3 2zm11.4-3.4c1.4-1.9 2.3-3.9 2.8-6 .6 2.1 1.5 4.1 2.9 6 .2.2.3.4.5.6l-.1.1-3.5 4.8-3.4-4.5c.3-.3.6-.6.8-1zM13.6 18c9.4 0 15.9 1.1 18.9 3.3-2-.9-4.2-1.5-6.5-1.5-8.3 0-15 6.7-15 15 0 7 4.8 12.9 11.3 14.6-3-.2-5.8-1.2-8.4-3-8.3-5.6-11-23.4-11.6-28 1.9-.1 6.3-.4 11.3-.4zm21.9 85.8c-.1.4-.1.8-.2 1.2-.4-.2-1-.4-1.6-.7-.8-.5-1.7-1-2.7-1.6 6-15.4 0-32.8-13.4-43 5.6 3.1 11.7 8 15.1 15.1 5.3 11.4 3.5 23.8 2.8 29zM14.6 87.6C8.1 78 7.3 62 7.3 56.1c18.7 7.9 28.4 28 21.9 45.5-1.4-1-2.9-2-4.4-3.2-2.8-2.4-5.4-4.8-7.6-7.4-.9-1-1.7-2.2-2.6-3.4zM44.1 105c0-.3-.1-.7-.2-1.2-.8-5.3-2.5-17.6 2.8-29.1 3.3-7.1 9.5-12 15.1-15.1-13.5 10.3-19.4 27.6-13.5 43-.9.6-1.7 1.1-2.5 1.5-.6.4-1.2.7-1.7.9zm22-19.6C63.4 89.8 59.6 94 55 97.8c-1.6 1.4-3.2 2.6-4.8 3.7C43.8 84 53.5 64 72.1 56.1c0 5.5-.6 19.7-6 29.3zm4.2-31.8c-5.8 1.9-19.4 7.7-25.3 20.3-5.6 12-3.8 24.8-3 30.3.1.8.2 1.6.2 2 0 .1 0 .1-.1.2-1 .5-1.7.8-2.1 1-.5-.2-1.4-.6-2.7-1.2 0-.4.1-1.2.2-2 .8-5.5 2.6-18.2-3-30.3-5.8-12.4-19.1-18.2-25.1-20.2v-8.5c1 1.1 2 2.1 3.2 2.9 3.3 2.2 7 3.4 10.8 3.4 4.1 0 8-1.4 11.1-4 .3-.1.6-.3.8-.4l3.8 5.1c.2.3.5.4.8.4.3 0 .6-.2.8-.4l3.8-5.1c.6.3 1.4.7 2.4 1.1 2.9 2 6.3 3.1 10 3.1s7.5-1.1 10.8-3.2c.8-.5 1.6-1.2 2.4-1.9v7.4zM75.9 30c-2.4 8.5-5.5 14.2-9.1 16.4-2.6 1.6-5.4 2.5-8.2 2.8 6-1.9 10.4-7.6 10.4-14.3 0-8.3-6.7-15-15-15-1.7 0-3.3.3-4.8.8C52.5 18.9 58.6 18 67 18c4.9 0 9.4.3 11.3.5-.3 2-1 6.6-2.4 11.5z"/><path d="M26 25.7c-5 0-9.1 4.1-9.1 9.1s4.1 9.1 9.1 9.1 9.1-4.1 9.1-9.1-4.1-9.1-9.1-9.1zm0 12.4c-1.9 0-3.4-1.5-3.4-3.4s1.5-3.4 3.4-3.4 3.4 1.5 3.4 3.4-1.6 3.4-3.4 3.4zm27.8-12.4c-5 0-9.1 4.1-9.1 9.1s4.1 9.1 9.1 9.1 9.1-4.1 9.1-9.1-4.1-9.1-9.1-9.1zm0 12.4c-1.9 0-3.4-1.5-3.4-3.4s1.5-3.4 3.4-3.4 3.4 1.5 3.4 3.4-1.6 3.4-3.4 3.4z" fill="#970048"/><path class="st0" d="M102.3 26.6h-3.1c-.2-.6-.3-1.2-.3-1.7 0-.4.1-.7.3-.8.2-.2.5-.3.9-.3H111c6.8 0 11.4.8 13.7 2.5 2.3 1.7 3.5 4.4 3.5 8.2 0 3.9-1.4 7-4.2 9.1-2.8 2.2-7.5 3.3-14 3.3h-1.4c0 5.6.1 9.3.2 11.2h4.2c.2.5.3 1.1.3 1.6s-.1.8-.3 1c-.2.2-.5.3-1 .3H99c-.2-.6-.4-1.2-.4-1.7 0-.4.1-.7.3-.8.2-.2.5-.3.9-.3h2.5c.1-2.5.2-9 .2-19.4 0-5.6 0-9.7-.2-12.2zm8.4 16.9c4 0 6.8-.6 8.4-1.7 1.6-1.1 2.4-3.1 2.4-5.8 0-2.6-.8-4.6-2.3-6.1-1.5-1.4-4-2.1-7.4-2.1-1.1 0-2.2.1-3.1.3-.1 1.6-.2 5.2-.2 11v4.4h2.2zm21.1-8.2c0-.5.2-.8.6-.9.4-.1 2.8-.3 7.2-.4.1.8.1 1.9 0 3.3 2-1.4 3.9-2.3 5.8-2.8s3.5-.8 5.1-.8c.5 0 .8.1 1 .2.2.1.3.4.3.8 0 .8-.1 1.6-.4 2.5-.2.9-.5 1.4-.9 1.7-.3.2-.9.4-1.7.5-.8.1-1.3.2-1.4.1-.1-.1-.5-.6-1.2-1.5-1.6 0-2.9.5-3.9 1.5s-1.5 3.1-1.5 6.2c0 5.6.1 9.7.2 12.4h3.8c.2.5.3 1 .3 1.5s-.1.8-.3 1c-.2.2-.6.3-1.1.3h-11.5c-.2-.6-.4-1.1-.4-1.6 0-.4.1-.7.3-.9.2-.2.5-.3 1-.3h1.9c.1-2.7.2-6.2.2-10.6 0-5.3-.2-8.4-.6-9.3-.4-.9-1.2-1.3-2.4-1.3-.3-.5-.4-1-.4-1.6zm38.9 23.4c-1.5.9-3.1 1.6-4.7 2-1.6.5-3.2.7-4.7.7-2.4 0-4.3-.6-5.5-1.7-1.2-1.1-1.8-2.9-1.8-5.1 0-2.8 1-4.9 3-6.4s5-2.2 9.1-2.2h4c-.1-3.2-.6-5.4-1.4-6.7-.8-1.2-2.2-1.9-4.3-1.9-1.1 0-2.1.1-3.1.3-.5 1-.8 1.6-.9 1.7-.1.1-.6.2-1.6.5-.9.2-1.6.2-2-.1-.4-.3-.8-.9-1.1-1.8-.4-.9-.6-1.6-.6-2.1 0-.4.1-.6.4-.8.3-.2 1.5-.4 3.7-.7 2.1-.3 4.4-.4 6.8-.4 3.2 0 5.6.6 7.1 1.7s2.3 3.1 2.3 6.1V50c0 3.9.2 6.2.5 7.1.3.9.9 1.2 1.7 1 .2.4.3.8.3 1.2 0 .6-.4 1.1-1.2 1.4-.8.3-1.8.5-3.1.5-.6 0-1.1-.1-1.5-.2-.1-.2-.6-1-1.4-2.3zm-.5-9.2c-1.6-.3-3.2-.4-4.8-.4-2.1 0-3.5.3-4.3 1-.8.7-1.2 1.8-1.2 3.3 0 1.4.4 2.5 1.1 3.3.7.7 1.9 1.1 3.4 1.1 1.2 0 2.3-.2 3.3-.7 1-.5 1.7-1.1 2-2 .3-.8.5-2.2.5-4v-1.6zm29.3-12.2H198c-.2-.5-.3-1.1-.3-1.6s.1-.9.3-1.1c.2-.2.5-.3 1-.3h7.1c.2.5.4 1.1.4 1.6 0 .6-.1.9-.4 1.1-.2.2-.6.3-1.2.3h-.4c-.7 1.8-2.1 5.9-4.2 12.2-2.1 6.3-3.5 9.8-4.1 10.7-.6.8-1.6 1.2-2.9 1.2-2.2 0-3.3-.1-3.5-.3-.2-.2-1.2-3.4-3.2-9.6-2-6.2-3.2-9.9-3.6-11-.4-1.1-.8-2-1.1-2.5-.3-.5-.6-.8-1-.9-.4-.1-.9-.2-1.5-.2-.2-.6-.4-1.1-.4-1.6s.3-.9.9-1.1c.6-.2 2.1-.2 4.7-.2 1.1 0 1.9.1 2.3.3.4.2.8.5 1 1 .2.5.5 1.5.8 3.2.3 1.7 1.2 5.1 2.7 10.4 1.5 5.2 2.4 7.8 2.5 7.8.2 0 1.1-2.7 2.7-8.2 1.8-5.6 2.7-9.3 2.9-11.2zm20.1 24.1c-3.9 0-6.8-1-8.7-3.1-1.8-2.1-2.8-5.2-2.8-9.4 0-4.8 1.1-8.6 3.4-11.3 2.2-2.7 5.5-4 9.7-4 3.9 0 6.8 1 8.7 3.1 1.8 2.1 2.8 5.2 2.8 9.4 0 4.8-1.1 8.6-3.4 11.2-2.3 2.8-5.5 4.1-9.7 4.1zm1-3.6c2.1 0 3.6-.8 4.5-2.3.9-1.6 1.4-4 1.4-7.2 0-3.7-.5-6.5-1.4-8.3-.9-1.8-2.6-2.7-4.9-2.7-2.1 0-3.6.8-4.5 2.3-.9 1.6-1.4 4-1.4 7.2 0 3.7.5 6.5 1.4 8.3.9 1.8 2.6 2.7 4.9 2.7z"/><path d="M105.8 83.8c-.7.4-1.4.7-2.1.9-.7.2-1.4.3-2.1.3-1.1 0-1.9-.3-2.5-.8-.5-.5-.8-1.3-.8-2.3 0-1.2.4-2.2 1.3-2.9.9-.7 2.3-1 4.1-1h1.8c0-1.4-.3-2.4-.6-3-.4-.6-1-.8-1.9-.8-.5 0-1 0-1.4.1-.2.5-.4.7-.4.8 0 0-.3.1-.7.2-.4.1-.7.1-.9-.1-.2-.2-.3-.4-.5-.8s-.3-.7-.3-1c0-.2.1-.3.2-.4.1-.1.7-.2 1.6-.3 1-.1 2-.2 3.1-.2 1.4 0 2.5.2 3.2.7.7.5 1 1.4 1 2.7v3.8c0 1.7.1 2.8.2 3.2.2.4.4.5.8.5.1.2.1.4.1.5 0 .3-.2.5-.5.6-.3.1-.8.2-1.4.2-.3 0-.5 0-.7-.1 0 .1-.2-.3-.6-.8zm-.2-4.2c-.7-.1-1.4-.2-2.2-.2-.9 0-1.6.2-2 .5-.4.3-.6.8-.6 1.5s.2 1.1.5 1.5c.3.3.8.5 1.5.5.5 0 1-.1 1.5-.3.5-.2.8-.5.9-.9.2-.4.2-1 .2-1.8v-.8zm14.3-5.8c.5.8.7 1.7.7 2.6 0 1.4-.4 2.5-1.3 3.3-.9.8-2.3 1.3-4.2 1.3-.9 0-1.4.1-1.7.3-.3.2-.4.5-.4.8 0 .4.2.7.5.9.3.2 1.6.3 3.8.3 2.1 0 3.5.2 4.1.7.6.4.9 1.1.9 1.9 0 1.3-.7 2.3-2 3.1-1.3.8-3.4 1.1-6.2 1.1-1.4 0-2.3-.2-2.8-.6-.5-.4-.7-.9-.7-1.6 0-.5.1-1 .4-1.5.3-.5.6-1 1.1-1.5-.4-.2-.7-.4-1-.7-.2-.3-.4-.7-.4-1.2s.2-.9.5-1.4c.3-.4.8-.8 1.4-1.1-.5-.2-.9-.6-1.3-1.1-.3-.5-.5-1.3-.5-2.1 0-1.4.4-2.6 1.3-3.5.9-.9 2.2-1.4 4-1.4 1 0 1.9.2 2.7.5 1.1-.5 1.7-.7 1.9-.7 1 0 1.5 0 1.6.1.1.1.1.1.1.3 0 .2-.1.5-.3.9-.2.4-.4.6-.5.6-.2 0-.7-.2-1.6-.6l-.1.3zm-6.1 11.3c-.3.3-.5.6-.7 1-.2.4-.2.7-.2 1.1 0 .6.2 1 .5 1.2.3.2 1 .4 2 .4 1.5 0 2.6-.2 3.3-.5.7-.4 1.1-.9 1.1-1.5s-.3-1-.8-1.2c-.5-.4-2.3-.5-5.2-.5zm2-11.3c-.8 0-1.4.2-1.7.7-.4.4-.6 1.2-.6 2.4 0 1 .2 1.7.5 2.1.4.4.9.7 1.7.7.8 0 1.4-.2 1.8-.6.4-.4.6-1.2.6-2.3 0-1-.2-1.7-.6-2.2-.3-.5-.9-.8-1.7-.8zm13-1.4c1.5 0 2.6.4 3.4 1.1.7.7 1.1 1.9 1.1 3.6 0 .7-.1 1.2-.4 1.5-.3.3-.8.4-1.7.4h-5.4c0 1.3.3 2.4.8 3.1.5.8 1.4 1.1 2.7 1.1 1.2 0 2.4-.3 3.4-1 .4.4.5.7.5 1.1 0 .5-.5.9-1.4 1.2s-1.9.3-3.1.3c-2.1 0-3.6-.4-4.5-1.3-.9-.9-1.4-2.4-1.4-4.5s.5-3.7 1.5-4.9c1.3-1.1 2.7-1.7 4.5-1.7zm-.4 1.7c-.8 0-1.4.3-1.9.9-.4.6-.7 1.5-.7 2.7h1.3c1.3 0 2.3 0 2.7-.1.5-.1.8-.1.8-.3.1-.1.1-.4.1-.7 0-.8-.2-1.4-.6-1.9-.3-.4-.9-.6-1.7-.6zm10.2 0c.8-.5 1.6-.9 2.4-1.2.8-.3 1.5-.4 2.1-.4 1.1 0 1.9.3 2.5.8.6.5.8 1.5.8 2.9 0 4.4.1 6.7.2 7 .1.3.4.4.9.4.1.2.1.5.1.7 0 .2-.1.4-.2.4-.1.1-.4.1-.8.1h-2.1c-.3 0-.4-.1-.5-.3-.1-.1-.1-.4-.1-.7v-5.3c0-1.7-.2-2.8-.5-3.4-.4-.6-.9-.8-1.7-.8-.7 0-1.3.2-1.8.6-.5.4-.7 1.1-.7 2.1v2.6c0 1.4 0 2.8.1 4h1.4c.1.2.1.4.1.7 0 .2 0 .4-.1.5-.1.1-.3.1-.5.1h-4.8c-.1-.3-.2-.5-.2-.7 0-.2 0-.3.1-.4.1-.1.2-.1.4-.1h.8c.1-1.3.1-2.9.1-4.8 0-2.4-.1-3.8-.3-4.2-.2-.4-.5-.6-1.1-.6-.1-.2-.2-.5-.2-.7 0-.2.1-.4.3-.4.2-.1 1.3-.1 3.2-.2.2.2.2.7.1 1.3zM154.5 85c-2 0-3.4-.4-4.3-1.3-.8-.8-1.3-2.3-1.3-4.3 0-2.3.5-4 1.6-5.2 1.1-1.2 2.7-1.8 4.9-1.8 1.1 0 1.8.1 2.3.3.5.2.7.5.7.9 0 .5-.2 1-.5 1.4-1.2-.6-2.3-1-3.1-1-1.1 0-1.9.4-2.4 1.1-.5.7-.7 1.9-.7 3.4 0 1.6.2 2.8.7 3.6.5.8 1.3 1.2 2.5 1.2.9 0 2-.3 3.3-.9.3.4.4.8.4 1.2 0 .5-.4.8-1.3 1.1-.8.2-1.7.3-2.8.3zM171 74.1c-.4 1.2-1.2 3.7-2.4 7.6-1.2 3.8-2.1 6.1-2.6 6.8-.6.7-1.2 1.1-1.9 1.3-.7.2-1.5.3-2.4.3-.9 0-1.5-.1-1.7-.2-.3-.1-.4-.4-.4-.7 0-.4.1-.8.4-1.2 1.5.3 2.7.4 3.4.3.7-.1 1.4-1.2 2.2-3.5-.7 0-1-.1-1.1-.1-.1 0-.5-1.4-1.3-4.1-.8-2.7-1.3-4.4-1.5-5-.2-.6-.4-1-.5-1.2-.1-.2-.3-.4-.4-.4-.2-.1-.4-.1-.7-.1-.1-.3-.2-.5-.2-.7 0-.3.1-.4.4-.5.3-.1.8-.1 1.7-.1.7 0 1.1 0 1.3.1.2.1.4.2.5.4.1.2.2.8.4 1.7.2.9.6 2.5 1.2 4.7s.9 3.3 1 3.3c.1 0 .4-1.3 1.1-3.8.7-2.5 1.1-4.2 1.2-5h-.7c-.1-.2-.1-.5-.1-.7 0-.2 0-.4.1-.5.1-.1.2-.1.5-.1h3.5c.1.2.2.5.2.7 0 .3-.1.4-.2.5-.1.1-.3.1-.6.1h-.4z" stroke="#970048" stroke-width=".1" stroke-miterlimit="10" fill="#970048"/></svg>