<svg version="1.1" id="Layer_1" xmlns="http://www.w3.org/2000/svg" x="0" y="0" viewBox="0 0 26 26" xml:space="preserve"><style>.st0{stroke:#a70c5d;fill:#a70c5d;stroke-width:.2;stroke-miterlimit:10}</style><path class="st0 svg__st" d="M11.8 22.2c-4.5 0-8.1-3.6-8.1-8.1S7.4 6 11.8 6 20 9.6 20 14.1s-3.7 8.1-8.2 8.1zm0-15.5c-4.1 0-7.4 3.3-7.4 7.4s3.3 7.4 7.4 7.4 7.4-3.3 7.4-7.4-3.3-7.4-7.4-7.4z"/><path class="st0 svg__st" d="M11.8 19.1c-2.8 0-5-2.3-5-5s2.3-5 5-5 5 2.3 5 5-2.2 5-5 5zm0-9.3c-2.4 0-4.3 1.9-4.3 4.3s1.9 4.3 4.3 4.3 4.3-1.9 4.3-4.3-1.9-4.3-4.3-4.3z"/><path class="st0 svg__st" d="M11.8 15.6c-.9 0-1.5-.7-1.5-1.5s.7-1.5 1.5-1.5 1.5.7 1.5 1.5-.6 1.5-1.5 1.5zm0-2.3c-.4 0-.8.4-.8.8s.4.8.8.8.8-.4.8-.8-.3-.8-.8-.8z"/><path class="st0 svg__st" d="M12.3 14.1c-.1 0-.2 0-.3-.1-.1-.1-.1-.4 0-.5l9.5-9.6c.1-.1.4-.1.5 0 .1.1.1.4 0 .5L12.5 14c0 .1-.1.1-.2.1z"/><path class="st0 svg__st" d="M22.5 8.4h-4.8v-5h1.5V2.2h1.2V.6h2.7v2.2h2.3v2.5h-1.6v1.5h-1.3v1.6zm-4.1-.8h3.3V6H23V4.5h1.6v-1h-2.3V1.4h-1.2V3H20v1.2h-1.5v3.4z"/><path class="st0 svg__st" d="M21.3 8h-.9c1.2 1.7 2 3.8 2 6.1 0 5.8-4.7 10.5-10.5 10.5S1.3 19.9 1.3 14.1 6 3.6 11.8 3.6c2.3 0 4.5.8 6.2 2.1v-1c-1.8-1.2-3.9-1.9-6.2-1.9C5.6 2.8.6 7.9.6 14.1s5.1 11.3 11.3 11.3c6.2 0 11.3-5.1 11.3-11.3-.1-2.3-.7-4.3-1.9-6.1z"/></svg>