<svg xmlns="http://www.w3.org/2000/svg" viewBox="0 0 12 12"><path d="M5.6 8.5c0 .5-.2 1-.6 1.4-.4.4-.9.6-1.6.6-.5 0-.8-.1-1.2-.3-.3-.2-.6-.4-.8-.7-.1-.2-.2-.5-.3-.8s-.2-.7-.2-1c0-.7.1-1.3.3-1.9.2-.6.5-1.2.8-1.7.3-.5.7-1 1.2-1.3.6-.5 1-.8 1.5-1l1.1 1.4c-.6.4-1 .9-1.3 1.3-.4.6-.6 1.2-.6 1.9.5 0 .9.3 1.2.7.3.4.5.8.5 1.4zm5.4 0c0 .5-.2 1-.6 1.4-.4.4-.9.6-1.6.6-.5 0-.8-.1-1.2-.3-.2-.1-.4-.3-.6-.6-.2-.3-.4-.6-.5-.9 0-.3-.1-.7-.1-1 0-.7.1-1.3.3-1.9.3-.6.5-1.2.9-1.7s.8-1 1.2-1.3c.5-.5.9-.8 1.4-1l1.1 1.4c-.6.4-1 .9-1.3 1.3-.4.6-.6 1.2-.6 1.9.5 0 .9.3 1.2.7.3.4.4.8.4 1.4z"/></svg>