<svg xmlns="http://www.w3.org/2000/svg" viewBox="0 0 100 100"><path d="M62 17c-8.6 2.7-14 9.6-13.3 17.2l.2 2.9-3.4-.4c-12.4-1.4-23.3-6-32.6-13.8L8.3 19l-1.2 2.9c-2.4 6.4-.8 13.1 4.3 17.6 2.7 2.5 2.1 2.9-2.6 1.4-1.6-.5-3.1-.8-3.2-.7-.5.4 1.2 5.8 2.5 8 1.8 3 5.4 5.9 9.4 7.6l3.4 1.4-4 .1c-3.8 0-4 .1-3.6 1.3 1.4 3.9 6.8 8 12.8 9.8l4.2 1.3-3.7 1.9c-5.5 2.7-11.9 4.3-18.3 4.4-3.1.1-5.6.3-5.6.5 0 .6 8.3 3.9 13.2 5.3 14.6 3.9 31.9 2.2 44.9-4.4 9.2-4.7 18.5-14.1 22.8-23.2 2.3-4.8 4.7-13.7 4.7-17.9 0-2.8.2-3.1 4-6.4 2.3-1.9 4.4-4 4.8-4.6.7-1.1.6-1.1-2.9-.1-5.8 1.8-6.6 1.6-3.8-1.1 2.1-1.9 4.7-5.4 4.7-6.4 0-.2-1 .1-2.2.7-1.2.6-4 1.5-6 2l-3.7 1-3.4-2c-1.8-1.1-4.4-2.3-5.8-2.6-3.5-.9-8.9-.8-12 .2z"/></svg>